<svg xmlns="http://www.w3.org/2000/svg" version="1.1" xmlns:xlink="http://www.w3.org/1999/xlink" xmlns:svgjs="http://svgjs.dev/svgjs" width="1000" height="1000" viewBox="0 0 1000 1000"><rect width="1000" height="1000" fill="#000000"></rect><g transform="matrix(0.7,0,0,0.7,149.57575757575756,409.64532245855133)"><svg viewBox="0 0 396 103" data-background-color="#1b4571" preserveAspectRatio="xMidYMid meet" height="260" width="1000" xmlns="http://www.w3.org/2000/svg" xmlns:xlink="http://www.w3.org/1999/xlink"><g id="tight-bounds" transform="matrix(1,0,0,1,0.2400000000000091,-0.19554136099324637)"><svg viewBox="0 0 395.52 103.39108251052417" height="103.39108251052417" width="395.52"><g><svg viewBox="0 0 395.52 103.39108251052417" height="103.39108251052417" width="395.52"><g transform="matrix(1,0,0,1,0,62.18838688049068)"><svg viewBox="0 0 395.52 41.20269563003348" height="41.20269563003348" width="395.52"><g id="textblocktransform"><svg viewBox="0 0 395.52 41.20269563003348" height="41.20269563003348" width="395.52" id="textblock"><g><svg viewBox="0 0 395.52 22.222765210289914" height="22.222765210289914" width="395.52"><g transform="matrix(1,0,0,1,0,0)"><svg width="395.52" viewBox="-0.20000000298023224 -33.95000076293945 612.2100219726562 34.400001525878906" height="22.222765210289914" data-palette-color="#ffffff"><path d="M53.7-33.3Q54.75-33.3 55.33-32.98 55.9-32.65 55.9-32.05L55.9-32.05Q55.9-31.8 55.75-31.4L55.75-31.4Q55.6-30.95 55.33-30.73 55.05-30.5 54.5-30.15L54.5-30.15Q53.7-29.7 53.23-29.15 52.75-28.6 52.4-27.45L52.4-27.45 46.3-5.95Q46.1-5.3 46.1-4.7L46.1-4.7Q46.1-4.15 46.28-3.78 46.45-3.4 46.75-2.9L46.75-2.9Q46.95-2.65 47.1-2.38 47.25-2.1 47.25-1.8L47.25-1.8Q47.25-1.7 47.15-1.3L47.15-1.3Q46.95-0.65 46.23-0.35 45.5-0.05 44.15-0.05L44.15-0.05 32.4-0.05Q31.35-0.05 30.78-0.4 30.2-0.75 30.2-1.35L30.2-1.35Q30.2-1.65 30.35-2L30.35-2Q30.5-2.35 30.78-2.63 31.05-2.9 31.28-3.03 31.5-3.15 31.6-3.25L31.6-3.25Q32.4-3.7 32.9-4.25 33.4-4.8 33.75-5.95L33.75-5.95 37.55-19.45 24.6-3.4Q23-1.45 22.03-0.73 21.05 0 19.8 0L19.8 0Q18.6 0 17.93-0.78 17.25-1.55 16.7-3.4L16.7-3.4 12-18.85 8.3-5.9Q8.1-5.25 8.1-4.65L8.1-4.65Q8.1-4.05 8.28-3.65 8.45-3.25 8.8-2.8L8.8-2.8Q9.25-2.15 9.25-1.75L9.25-1.75Q9.25-1.65 9.15-1.25L9.15-1.25Q8.95-0.55 8.25-0.28 7.55 0 6.15 0L6.15 0 2 0Q0.95 0 0.38-0.35-0.2-0.7-0.2-1.3L-0.2-1.3Q-0.2-1.6-0.05-1.95L-0.05-1.95Q0.15-2.5 0.6-2.8 1.05-3.1 1.15-3.15L1.15-3.15Q1.95-3.65 2.45-4.17 2.95-4.7 3.3-5.9L3.3-5.9 9.4-27.5 8.6-30.15Q8.35-30.9 8.35-31.6L8.35-31.6Q8.35-32.5 8.93-32.9 9.5-33.3 10.7-33.3L10.7-33.3 18.45-33.3Q19.95-33.3 20.68-32.65 21.4-32 21.85-30.4L21.85-30.4 26.85-13.8 40.4-30.65Q41.7-32.25 42.95-32.77 44.2-33.3 46.25-33.3L46.25-33.3 53.7-33.3ZM91.65-33.5Q93.85-33.5 95.25-32.08 96.65-30.65 96.65-28.45L96.65-28.45Q96.65-28.15 96.55-27.35L96.55-27.35Q96.15-24.95 94.67-23.8 93.2-22.65 91.25-22.65L91.25-22.65Q89.95-22.65 89.05-23.05 88.15-23.45 87.35-24.4L87.35-24.4 79.1-13.65 76.8-5.9Q76.7-5.6 76.7-5.1L76.7-5.1Q76.7-4.4 77.05-3.93 77.4-3.45 78.05-2.9L78.05-2.9Q78.6-2.4 78.85-2.05 79.1-1.7 78.95-1.25L78.95-1.25Q78.75-0.55 77.97-0.28 77.2 0 75.85 0L75.85 0 63.25 0Q61.95 0 61.32-0.48 60.7-0.95 60.9-1.8L60.9-1.8Q61-2.25 61.27-2.53 61.55-2.8 62.15-3.2L62.15-3.2Q62.9-3.65 63.4-4.23 63.9-4.8 64.25-5.9L64.25-5.9 66.55-13.7 61.95-26.8Q61.45-28.25 60.77-29.03 60.1-29.8 59.2-30.55L59.2-30.55Q58.65-30.95 58.4-31.25 58.15-31.55 58.15-31.95L58.15-31.95Q58.15-32.55 58.67-32.93 59.2-33.3 60.2-33.3L60.2-33.3 73.55-33.3Q75.3-33.3 75.95-33 76.6-32.7 76.65-31.95L76.65-31.95Q76.65-31.5 76.45-31.18 76.25-30.85 75.85-30.4L75.85-30.4Q75.4-29.8 75.17-29.43 74.95-29.05 74.95-28.5L74.95-28.5Q74.95-28.35 75.05-27.85L75.05-27.85 77.35-19.05 83.7-28.1Q85.75-31 87.57-32.25 89.4-33.5 91.65-33.5L91.65-33.5ZM133.84-33.3Q135.69-33.3 136.72-32.5 137.74-31.7 137.74-30.3L137.74-30.3Q137.74-29.6 137.54-28.95L137.54-28.95 136.24-24.3Q135.89-22.95 135.22-22.43 134.54-21.9 133.29-21.9L133.29-21.9Q132.09-21.9 131.42-22.43 130.74-22.95 130.39-24.15L130.39-24.15 129.59-27Q129.34-27.9 128.99-28.2 128.64-28.5 127.64-28.5L127.64-28.5 122.39-28.5 119.89-19.6 122.09-19.6Q122.44-19.6 123.04-20.1L123.04-20.1 124.74-21.6Q125.49-22.25 126.04-22.55 126.59-22.85 127.39-22.85L127.39-22.85Q128.29-22.85 128.87-22.38 129.44-21.9 129.44-21.15L129.44-21.15Q129.44-20.95 129.34-20.55L129.34-20.55 127.29-13.6Q126.99-12.5 126.27-11.98 125.54-11.45 124.69-11.45L124.69-11.45Q123.29-11.45 122.59-12.9L122.59-12.9 121.74-14.65Q121.39-15.4 120.64-15.4L120.64-15.4 118.69-15.4 115.74-4.8 120.14-4.8Q121.09-4.8 121.82-5.18 122.54-5.55 123.39-6.5L123.39-6.5 126.39-9.8Q127.19-10.65 127.92-11.03 128.64-11.4 129.69-11.4L129.69-11.4Q130.79-11.4 131.49-10.9 132.19-10.4 132.19-9.4L132.19-9.4Q132.19-9 132.04-8.45L132.04-8.45 130.59-3.4Q130.04-1.5 128.99-0.75 127.94 0 125.94 0L125.94 0 102.09 0Q101.04 0 100.47-0.35 99.89-0.7 99.89-1.3L99.89-1.3Q99.89-1.6 100.04-1.95L100.04-1.95Q100.24-2.5 100.69-2.8 101.14-3.1 101.24-3.15L101.24-3.15Q102.04-3.65 102.54-4.17 103.04-4.7 103.39-5.9L103.39-5.9 109.54-27.45Q109.74-28.1 109.74-28.65L109.74-28.65Q109.74-29.25 109.57-29.65 109.39-30.05 109.04-30.5L109.04-30.5Q108.59-31.15 108.59-31.55L108.59-31.55Q108.59-31.7 108.69-32.1L108.69-32.1Q108.89-32.75 109.59-33.02 110.29-33.3 111.64-33.3L111.64-33.3 133.84-33.3ZM177.54-33.3Q178.69-33.3 179.29-32.88 179.89-32.45 179.89-31.75L179.89-31.75Q179.89-31.45 179.84-31.3L179.84-31.3Q179.69-30.65 179.24-30.33 178.79-30 177.79-29.6L177.79-29.6Q176.44-29 175.37-28.43 174.29-27.85 172.89-26.65L172.89-26.65 162.94-18.2 167.79-6.4Q168.29-5.2 168.92-4.55 169.54-3.9 170.44-3.3L170.44-3.3Q171.09-2.8 171.34-2.53 171.59-2.25 171.59-1.75L171.59-1.75Q171.59-0.85 170.99-0.43 170.39 0 168.99 0L168.99 0 155.54 0Q154.24 0 153.62-0.43 152.99-0.85 152.99-1.55L152.99-1.55Q152.99-1.85 153.04-2L153.04-2Q153.14-2.35 153.39-2.63 153.64-2.9 153.89-3.1L153.89-3.1Q154.29-3.45 154.49-3.75 154.69-4.05 154.69-4.6L154.69-4.6Q154.69-5.45 154.14-6.8L154.14-6.8 152.39-11.05 147.84-6.8Q146.44-5.55 146.44-4.55L146.44-4.55Q146.44-4.1 146.64-3.8 146.84-3.5 147.29-3L147.29-3Q147.74-2.55 147.97-2.15 148.19-1.75 148.04-1.3L148.04-1.3Q147.84-0.55 147.22-0.28 146.59 0 145.24 0L145.24 0 134.79 0Q133.64 0 133.04-0.43 132.44-0.85 132.44-1.55L132.44-1.55Q132.44-1.85 132.49-2L132.49-2Q132.64-2.65 133.09-2.98 133.54-3.3 134.54-3.7L134.54-3.7Q135.94-4.3 137.02-4.9 138.09-5.5 139.44-6.65L139.44-6.65 150.34-16 145.84-26.9Q145.34-28.1 144.72-28.75 144.09-29.4 143.19-30L143.19-30Q142.54-30.5 142.29-30.78 142.04-31.05 142.04-31.55L142.04-31.55Q142.04-32.45 142.64-32.88 143.24-33.3 144.64-33.3L144.64-33.3 158.09-33.3Q159.39-33.3 160.02-32.88 160.64-32.45 160.64-31.75L160.64-31.75Q160.64-31.45 160.59-31.3L160.59-31.3Q160.49-30.95 160.24-30.68 159.99-30.4 159.74-30.2L159.74-30.2Q159.34-29.85 159.14-29.55 158.94-29.25 158.94-28.7L158.94-28.7Q158.94-27.9 159.49-26.5L159.49-26.5 160.89-23.15 164.49-26.5Q165.94-27.8 165.94-28.75L165.94-28.75Q165.94-29.2 165.72-29.53 165.49-29.85 165.04-30.3L165.04-30.3Q164.94-30.4 164.67-30.73 164.39-31.05 164.29-31.38 164.19-31.7 164.29-32L164.29-32Q164.49-32.75 165.12-33.02 165.74-33.3 167.09-33.3L167.09-33.3 177.54-33.3ZM202.14-33.3Q207.44-33.3 210.31-31 213.19-28.7 213.19-24.9L213.19-24.9Q213.19-23.4 212.74-21.75L212.74-21.75Q211.34-16.75 207.21-14.35 203.09-11.95 196.79-11.95L196.79-11.95 191.64-11.95 189.94-5.9Q189.84-5.6 189.84-5.1L189.84-5.1Q189.84-4.4 190.16-3.95 190.49-3.5 191.14-2.9L191.14-2.9Q191.69-2.4 191.89-2.15 192.09-1.9 192.09-1.55L192.09-1.55Q192.09-0.7 191.29-0.35 190.49 0 188.94 0L188.94 0 176.39 0Q175.09 0 174.44-0.48 173.79-0.95 173.99-1.8L173.99-1.8Q174.09-2.25 174.36-2.53 174.64-2.8 175.19-3.15L175.19-3.15Q176.04-3.65 176.54-4.2 177.04-4.75 177.34-5.9L177.34-5.9 183.44-27.45Q183.64-28.1 183.64-28.7L183.64-28.7Q183.64-29.25 183.46-29.63 183.29-30 182.99-30.5L182.99-30.5Q182.54-31.15 182.54-31.55L182.54-31.55Q182.54-31.7 182.64-32.1L182.64-32.1Q182.84-32.75 183.51-33.02 184.19-33.3 185.59-33.3L185.59-33.3 202.14-33.3ZM200.84-22.65Q201.39-24.5 201.39-25.9L201.39-25.9Q201.39-28.8 198.69-28.8L198.69-28.8 196.44-28.8 192.89-16.45 195.09-16.45Q197.19-16.45 198.51-17.78 199.84-19.1 200.84-22.65L200.84-22.65ZM241.99-33.3Q243.84-33.3 244.86-32.5 245.89-31.7 245.89-30.3L245.89-30.3Q245.89-29.6 245.69-28.95L245.69-28.95 244.39-24.3Q244.04-22.95 243.36-22.43 242.69-21.9 241.44-21.9L241.44-21.9Q240.24-21.9 239.56-22.43 238.89-22.95 238.54-24.15L238.54-24.15 237.74-27Q237.49-27.9 237.14-28.2 236.79-28.5 235.79-28.5L235.79-28.5 230.54-28.5 228.03-19.6 230.24-19.6Q230.59-19.6 231.19-20.1L231.19-20.1 232.89-21.6Q233.64-22.25 234.19-22.55 234.74-22.85 235.54-22.85L235.54-22.85Q236.44-22.85 237.01-22.38 237.59-21.9 237.59-21.15L237.59-21.15Q237.59-20.95 237.49-20.55L237.49-20.55 235.44-13.6Q235.14-12.5 234.41-11.98 233.69-11.45 232.84-11.45L232.84-11.45Q231.44-11.45 230.74-12.9L230.74-12.9 229.89-14.65Q229.54-15.4 228.79-15.4L228.79-15.4 226.84-15.4 223.89-4.8 228.28-4.8Q229.24-4.8 229.96-5.18 230.69-5.55 231.54-6.5L231.54-6.5 234.54-9.8Q235.34-10.65 236.06-11.03 236.79-11.4 237.84-11.4L237.84-11.4Q238.94-11.4 239.64-10.9 240.34-10.4 240.34-9.4L240.34-9.4Q240.34-9 240.19-8.45L240.19-8.45 238.74-3.4Q238.19-1.5 237.14-0.75 236.09 0 234.09 0L234.09 0 210.24 0Q209.19 0 208.61-0.35 208.03-0.7 208.03-1.3L208.03-1.3Q208.03-1.6 208.19-1.95L208.19-1.95Q208.39-2.5 208.84-2.8 209.28-3.1 209.39-3.15L209.39-3.15Q210.19-3.65 210.69-4.17 211.19-4.7 211.53-5.9L211.53-5.9 217.69-27.45Q217.89-28.1 217.89-28.65L217.89-28.65Q217.89-29.25 217.71-29.65 217.53-30.05 217.19-30.5L217.19-30.5Q216.74-31.15 216.74-31.55L216.74-31.55Q216.74-31.7 216.84-32.1L216.84-32.1Q217.03-32.75 217.74-33.02 218.44-33.3 219.78-33.3L219.78-33.3 241.99-33.3ZM281.33-33.3Q283.38-33.3 283.38-32L283.38-32Q283.38-31.65 283.33-31.5L283.33-31.5Q283.18-31 282.88-30.73 282.58-30.45 282.03-30.1L282.03-30.1Q281.28-29.65 280.78-29.1 280.28-28.55 279.93-27.4L279.93-27.4 273.73-5.2Q272.88-2.2 271.61-1 270.33 0.2 268.08 0.2L268.08 0.2Q266.08 0.2 264.76-0.98 263.43-2.15 262.28-4.6L262.28-4.6 254.73-20.5 250.53-5.9Q250.38-5.25 250.38-4.75L250.38-4.75Q250.38-4.1 250.61-3.68 250.83-3.25 251.23-2.8L251.23-2.8Q251.78-2.15 251.78-1.7L251.78-1.7Q251.78-1.4 251.73-1.25L251.73-1.25Q251.53-0.55 250.83-0.28 250.13 0 248.73 0L248.73 0 243.28 0Q241.23 0 241.23-1.3L241.23-1.3Q241.23-1.65 241.28-1.8L241.28-1.8Q241.43-2.3 241.73-2.58 242.03-2.85 242.58-3.2L242.58-3.2Q243.33-3.65 243.83-4.2 244.33-4.75 244.68-5.9L244.68-5.9 251.03-28.35 250.23-30Q249.73-31 249.73-31.75L249.73-31.75Q249.73-33.3 251.73-33.3L251.73-33.3 259.13-33.3Q260.73-33.3 261.56-32.58 262.38-31.85 263.33-30L263.33-30 270.63-15.35 274.08-27.4Q274.23-28.1 274.23-28.55L274.23-28.55Q274.23-29.2 274.01-29.63 273.78-30.05 273.38-30.5L273.38-30.5Q272.83-31.15 272.83-31.6L272.83-31.6Q272.83-31.9 272.88-32.05L272.88-32.05Q273.08-32.75 273.78-33.02 274.48-33.3 275.88-33.3L275.88-33.3 281.33-33.3ZM297.43-33.6Q300.23-33.6 302.61-32.93 304.98-32.25 307.43-30.8L307.43-30.8 308.58-31.75Q309.78-32.7 310.56-33.05 311.33-33.4 312.33-33.4L312.33-33.4Q313.53-33.4 314.23-32.88 314.93-32.35 314.93-31.35L314.93-31.35Q314.93-30.95 314.78-30.5L314.78-30.5 312.68-23.6Q312.33-22.4 311.81-21.9 311.28-21.4 310.23-21.4L310.23-21.4Q309.13-21.4 308.31-22.08 307.48-22.75 305.73-24.85L305.73-24.85Q303.98-26.85 302.56-27.68 301.13-28.5 299.63-28.5L299.63-28.5Q298.53-28.5 297.78-27.78 297.03-27.05 297.03-26L297.03-26Q297.03-24.8 298.23-23.78 299.43-22.75 301.98-21.2L301.98-21.2Q304.58-19.65 306.28-18.4 307.98-17.15 309.18-15.3 310.38-13.45 310.38-11.05L310.38-11.05Q310.38-9.5 309.88-7.95L309.88-7.95Q308.68-3.95 305.23-1.88 301.78 0.2 297.18 0.2L297.18 0.2Q293.73 0.2 291.38-0.6 289.03-1.4 286.58-3.3L286.58-3.3 284.78-1.8Q283.53-0.75 282.73-0.38 281.93 0 280.93 0L280.93 0Q279.78 0 279.11-0.55 278.43-1.1 278.43-2.05L278.43-2.05Q278.43-2.55 278.63-3.1L278.63-3.1 281.08-10.55Q281.48-11.85 282.18-12.4 282.88-12.95 283.98-12.95L283.98-12.95Q285.13-12.95 286.06-12.15 286.98-11.35 288.48-9.25L288.48-9.25Q290.08-6.95 291.46-6.05 292.83-5.15 294.73-5.15L294.73-5.15Q296.08-5.15 296.81-5.58 297.53-6 297.83-6.95L297.83-6.95Q297.93-7.2 297.93-7.7L297.93-7.7Q297.93-8.9 296.78-9.9 295.63-10.9 293.23-12.3L293.23-12.3Q290.68-13.85 289.08-15.08 287.48-16.3 286.31-18.15 285.13-20 285.13-22.5L285.13-22.5Q285.13-24.25 285.68-25.95L285.68-25.95Q286.73-29.4 289.98-31.5 293.23-33.6 297.43-33.6L297.43-33.6ZM345.33-33.3Q347.18-33.3 348.2-32.5 349.23-31.7 349.23-30.3L349.23-30.3Q349.23-29.6 349.03-28.95L349.03-28.95 347.73-24.3Q347.38-22.95 346.7-22.43 346.03-21.9 344.78-21.9L344.78-21.9Q343.58-21.9 342.9-22.43 342.23-22.95 341.88-24.15L341.88-24.15 341.08-27Q340.83-27.9 340.48-28.2 340.13-28.5 339.13-28.5L339.13-28.5 333.88-28.5 331.38-19.6 333.58-19.6Q333.93-19.6 334.53-20.1L334.53-20.1 336.23-21.6Q336.98-22.25 337.53-22.55 338.08-22.85 338.88-22.85L338.88-22.85Q339.78-22.85 340.35-22.38 340.93-21.9 340.93-21.15L340.93-21.15Q340.93-20.95 340.83-20.55L340.83-20.55 338.78-13.6Q338.48-12.5 337.75-11.98 337.03-11.45 336.18-11.45L336.18-11.45Q334.78-11.45 334.08-12.9L334.08-12.9 333.23-14.65Q332.88-15.4 332.13-15.4L332.13-15.4 330.18-15.4 327.23-4.8 331.63-4.8Q332.58-4.8 333.3-5.18 334.03-5.55 334.88-6.5L334.88-6.5 337.88-9.8Q338.68-10.65 339.4-11.03 340.13-11.4 341.18-11.4L341.18-11.4Q342.28-11.4 342.98-10.9 343.68-10.4 343.68-9.4L343.68-9.4Q343.68-9 343.53-8.45L343.53-8.45 342.08-3.4Q341.53-1.5 340.48-0.75 339.43 0 337.43 0L337.43 0 313.58 0Q312.53 0 311.95-0.35 311.38-0.7 311.38-1.3L311.38-1.3Q311.38-1.6 311.53-1.95L311.53-1.95Q311.73-2.5 312.18-2.8 312.63-3.1 312.73-3.15L312.73-3.15Q313.53-3.65 314.03-4.17 314.53-4.7 314.88-5.9L314.88-5.9 321.03-27.45Q321.23-28.1 321.23-28.65L321.23-28.65Q321.23-29.25 321.05-29.65 320.88-30.05 320.53-30.5L320.53-30.5Q320.08-31.15 320.08-31.55L320.08-31.55Q320.08-31.7 320.18-32.1L320.18-32.1Q320.38-32.75 321.08-33.02 321.78-33.3 323.13-33.3L323.13-33.3 345.33-33.3ZM396.27-33.3Q399.02-33.3 399.02-31.05L399.02-31.05Q399.02-30.35 398.72-29.3L398.72-29.3 397.52-25.25Q396.97-23.4 396.17-22.65 395.37-21.9 393.87-21.9L393.87-21.9Q392.62-21.9 391.95-22.55 391.27-23.2 390.67-24.6L390.67-24.6 389.82-26.65Q389.42-27.6 388.97-27.95 388.52-28.3 387.57-28.3L387.57-28.3 386.42-28.3 380.07-5.95Q379.92-5.3 379.92-4.8L379.92-4.8Q379.92-4.2 380.1-3.8 380.27-3.4 380.62-2.95L380.62-2.95Q381.07-2.25 381.07-1.8L381.07-1.8Q381.07-1.7 380.97-1.3L380.97-1.3Q380.72-0.65 380-0.35 379.27-0.05 377.92-0.05L377.92-0.05 366.17-0.05Q365.12-0.05 364.55-0.4 363.97-0.75 363.97-1.4L363.97-1.4Q363.97-1.7 364.12-2L364.12-2Q364.32-2.45 364.6-2.68 364.87-2.9 365.42-3.25L365.42-3.25Q366.17-3.7 366.67-4.25 367.17-4.8 367.52-5.95L367.52-5.95 373.82-28.3 372.67-28.3Q371.57-28.3 370.87-27.95 370.17-27.6 369.37-26.65L369.37-26.65 367.72-24.6Q366.57-23.25 365.5-22.58 364.42-21.9 363.17-21.9L363.17-21.9Q362.02-21.9 361.37-22.5 360.72-23.1 360.72-24.15L360.72-24.15Q360.72-24.65 360.87-25.25L360.87-25.25 362.17-29.8Q362.57-31.2 363.07-31.93 363.57-32.65 364.5-32.98 365.42-33.3 367.12-33.3L367.12-33.3 396.27-33.3ZM432.37-23.15Q431.57-20.25 429.37-18.63 427.17-17 423.82-16.6L423.82-16.6Q426.22-16.4 427.42-15.2 428.62-14 428.62-12.05L428.62-12.05Q428.62-11.3 428.37-10.2L428.37-10.2 427.82-7.75Q427.72-7.25 427.72-7.05L427.72-7.05Q427.72-6.4 428.02-6.08 428.32-5.75 428.87-5.75L428.87-5.75Q429.92-5.75 430.4-5.45 430.87-5.15 430.72-4.35L430.72-4.35Q430.52-3.2 429.52-2.1 428.52-1 426.69-0.28 424.87 0.45 422.27 0.45L422.27 0.45Q418.97 0.45 417.02-1.03 415.07-2.5 415.07-5.25L415.07-5.25Q415.07-6.3 415.37-7.5L415.37-7.5 416.17-10.7Q416.37-11.35 416.37-12.05L416.37-12.05Q416.37-13.2 415.6-13.7 414.82-14.2 413.12-14.2L413.12-14.2 411.22-14.2 408.92-5.9Q408.82-5.6 408.82-5.15L408.82-5.15Q408.82-4.45 409.17-3.95 409.52-3.45 410.12-2.9L410.12-2.9Q410.57-2.55 410.82-2.23 411.07-1.9 411.07-1.55L411.07-1.55Q411.07-0.7 410.27-0.35 409.47 0 407.92 0L407.92 0 395.37 0Q394.07 0 393.42-0.48 392.77-0.95 392.97-1.8L392.97-1.8Q393.07-2.25 393.35-2.53 393.62-2.8 394.17-3.15L394.17-3.15Q395.02-3.65 395.52-4.2 396.02-4.75 396.32-5.9L396.32-5.9 402.42-27.45Q402.62-28.1 402.62-28.7L402.62-28.7Q402.62-29.25 402.44-29.63 402.27-30 401.97-30.5L401.97-30.5Q401.52-31.15 401.52-31.55L401.52-31.55Q401.52-31.7 401.62-32.1L401.62-32.1Q401.82-32.75 402.5-33.02 403.17-33.3 404.57-33.3L404.57-33.3 421.32-33.3Q424.77-33.3 427.35-32.25 429.92-31.2 431.3-29.38 432.67-27.55 432.67-25.25L432.67-25.25Q432.67-24.2 432.37-23.15L432.37-23.15ZM419.57-23.65Q419.82-24.8 419.82-25.4L419.82-25.4Q419.82-28.05 416.92-28.05L416.92-28.05 414.82-28.05 412.62-19.2 414.72-19.2Q416.67-19.2 417.8-20.15 418.92-21.1 419.57-23.65L419.57-23.65ZM467.57-22.9L462.67-5.9Q462.47-5.25 462.47-4.6L462.47-4.6Q462.47-4.05 462.62-3.68 462.77-3.3 462.94-3.08 463.12-2.85 463.17-2.75L463.17-2.75Q463.67-2.25 463.67-1.75L463.67-1.75Q463.67-1.65 463.57-1.25L463.57-1.25Q463.37-0.55 462.69-0.28 462.02 0 460.62 0L460.62 0 448.77 0Q447.72 0 447.14-0.35 446.57-0.7 446.57-1.3L446.57-1.3Q446.57-1.6 446.72-1.95L446.72-1.95Q446.87-2.35 447.14-2.58 447.42-2.8 447.92-3.1L447.92-3.1Q448.72-3.55 449.22-4.1 449.72-4.65 450.07-5.9L450.07-5.9 451.37-10.2 443.57-10.2 442.22-7.35Q441.37-5.5 441.37-4.45L441.37-4.45Q441.37-3.85 441.57-3.48 441.77-3.1 442.17-2.7L442.17-2.7Q442.52-2.3 442.64-2.02 442.77-1.75 442.67-1.3L442.67-1.3Q442.47-0.55 441.84-0.28 441.22 0 439.87 0L439.87 0 432.42 0Q431.27 0 430.67-0.43 430.07-0.85 430.07-1.55L430.07-1.55Q430.07-2.35 430.64-2.83 431.22-3.3 432.37-3.85L432.37-3.85Q433.87-4.6 434.77-5.33 435.67-6.05 436.32-7.35L436.32-7.35 445.22-25.8Q447.27-30.1 450.04-32.02 452.82-33.95 457.37-33.95L457.37-33.95Q462.47-33.95 465.27-31.88 468.07-29.8 468.07-26.1L468.07-26.1Q468.07-24.55 467.57-22.9L467.57-22.9ZM445.87-15.2L452.87-15.2 455.52-24Q455.72-24.6 455.72-25.25L455.72-25.25Q455.72-26.2 455.19-26.68 454.67-27.15 453.72-27.15L453.72-27.15Q452.52-27.15 451.67-26.45 450.82-25.75 449.97-23.95L449.97-23.95 445.87-15.2ZM484.41 0.3Q480.21 0.3 476.87-1.25 473.51-2.8 471.54-5.83 469.56-8.85 469.56-13.15L469.56-13.15Q469.56-16.15 470.62-19.65L470.62-19.65Q472.91-27.15 477.56-30.48 482.21-33.8 487.51-33.8L487.51-33.8Q490.37-33.8 492.56-32.95 494.76-32.1 496.62-30.5L496.62-30.5 497.96-31.55Q499.31-32.6 500.24-33 501.16-33.4 502.31-33.4L502.31-33.4Q503.56-33.4 504.31-32.85 505.06-32.3 505.06-31.25L505.06-31.25Q505.06-30.7 504.87-30.15L504.87-30.15 502.06-22.35Q501.62-21 500.99-20.45 500.37-19.9 499.12-19.9L499.12-19.9Q497.81-19.9 496.99-20.83 496.16-21.75 495.12-24L495.12-24Q493.91-26.35 493.16-27.1 492.41-27.85 490.96-27.85L490.96-27.85Q488.91-27.85 487.01-25.33 485.12-22.8 483.56-17.75L483.56-17.75Q482.26-13.5 482.26-10.65L482.26-10.65Q482.26-8.15 483.21-6.93 484.16-5.7 485.76-5.7L485.76-5.7Q488.12-5.7 489.64-6.75 491.16-7.8 492.76-9.6L492.76-9.6Q493.76-10.7 494.39-11.23 495.01-11.75 495.71-11.75L495.71-11.75Q496.62-11.75 497.62-10.85 498.62-9.95 498.56-9.05L498.56-9.05Q498.62-7.95 496.79-5.65 494.96-3.35 491.74-1.53 488.51 0.3 484.41 0.3L484.41 0.3ZM537.71-33.5Q539.81-33.5 541.21-32.15 542.61-30.8 542.61-28.5L542.61-28.5Q542.61-25.9 541.06-24.3 539.51-22.7 537.36-22.7L537.36-22.7Q535.96-22.7 534.96-23.2 533.96-23.7 533.06-24.8L533.06-24.8 528.76-21.2 533.61-6.85Q534.06-5.6 534.59-4.85 535.11-4.1 535.86-3.35L535.86-3.35Q536.41-2.8 536.64-2.48 536.86-2.15 536.86-1.7L536.86-1.7Q536.86-0.9 536.14-0.45 535.41 0 533.61 0L533.61 0 527.06 0Q524.61 0 523.44-1.07 522.26-2.15 521.51-4.65L521.51-4.65 519.01-13.05 517.56-11.85 515.91-5.9Q515.71-5.25 515.71-4.65L515.71-4.65Q515.71-4.05 515.89-3.65 516.06-3.25 516.41-2.8L516.41-2.8Q516.86-2.15 516.86-1.75L516.86-1.75Q516.86-1.65 516.76-1.25L516.76-1.25Q516.56-0.55 515.86-0.28 515.16 0 513.76 0L513.76 0 502.01 0Q500.96 0 500.39-0.35 499.81-0.7 499.81-1.3L499.81-1.3Q499.81-1.6 499.96-1.95L499.96-1.95Q500.16-2.5 500.61-2.8 501.06-3.1 501.16-3.15L501.16-3.15Q501.96-3.65 502.46-4.17 502.96-4.7 503.31-5.9L503.31-5.9 509.41-27.45Q509.61-28.1 509.61-28.7L509.61-28.7Q509.61-29.25 509.44-29.63 509.26-30 508.96-30.5L508.96-30.5Q508.51-31.15 508.51-31.55L508.51-31.55Q508.51-31.7 508.61-32.1L508.61-32.1Q508.81-32.75 509.49-33.02 510.16-33.3 511.56-33.3L511.56-33.3 523.31-33.3Q524.36-33.3 524.94-32.98 525.51-32.65 525.51-32.05L525.51-32.05Q525.51-31.8 525.36-31.4L525.36-31.4Q525.21-31.05 524.94-30.78 524.66-30.5 524.44-30.38 524.21-30.25 524.11-30.15L524.11-30.15Q523.31-29.7 522.81-29.15 522.31-28.6 521.96-27.45L521.96-27.45 519.86-20 533.11-31.45Q534.41-32.55 535.46-33.02 536.51-33.5 537.71-33.5L537.71-33.5ZM572.61-33.3Q574.46-33.3 575.48-32.5 576.51-31.7 576.51-30.3L576.51-30.3Q576.51-29.6 576.31-28.95L576.31-28.95 575.01-24.3Q574.66-22.95 573.98-22.43 573.31-21.9 572.06-21.9L572.06-21.9Q570.86-21.9 570.18-22.43 569.51-22.95 569.16-24.15L569.16-24.15 568.36-27Q568.11-27.9 567.76-28.2 567.41-28.5 566.41-28.5L566.41-28.5 561.16-28.5 558.66-19.6 560.86-19.6Q561.21-19.6 561.81-20.1L561.81-20.1 563.51-21.6Q564.26-22.25 564.81-22.55 565.36-22.85 566.16-22.85L566.16-22.85Q567.06-22.85 567.63-22.38 568.21-21.9 568.21-21.15L568.21-21.15Q568.21-20.95 568.11-20.55L568.11-20.55 566.06-13.6Q565.76-12.5 565.03-11.98 564.31-11.45 563.46-11.45L563.46-11.45Q562.06-11.45 561.36-12.9L561.36-12.9 560.51-14.65Q560.16-15.4 559.41-15.4L559.41-15.4 557.46-15.4 554.51-4.8 558.91-4.8Q559.86-4.8 560.58-5.18 561.31-5.55 562.16-6.5L562.16-6.5 565.16-9.8Q565.96-10.65 566.68-11.03 567.41-11.4 568.46-11.4L568.46-11.4Q569.56-11.4 570.26-10.9 570.96-10.4 570.96-9.4L570.96-9.4Q570.96-9 570.81-8.45L570.81-8.45 569.36-3.4Q568.81-1.5 567.76-0.75 566.71 0 564.71 0L564.71 0 540.86 0Q539.81 0 539.23-0.35 538.66-0.7 538.66-1.3L538.66-1.3Q538.66-1.6 538.81-1.95L538.81-1.95Q539.01-2.5 539.46-2.8 539.91-3.1 540.01-3.15L540.01-3.15Q540.81-3.65 541.31-4.17 541.81-4.7 542.16-5.9L542.16-5.9 548.31-27.45Q548.51-28.1 548.51-28.65L548.51-28.65Q548.51-29.25 548.33-29.65 548.16-30.05 547.81-30.5L547.81-30.5Q547.36-31.15 547.36-31.55L547.36-31.55Q547.36-31.7 547.46-32.1L547.46-32.1Q547.66-32.75 548.36-33.02 549.06-33.3 550.41-33.3L550.41-33.3 572.61-33.3ZM611.71-23.15Q610.91-20.25 608.71-18.63 606.51-17 603.16-16.6L603.16-16.6Q605.56-16.4 606.76-15.2 607.96-14 607.96-12.05L607.96-12.05Q607.96-11.3 607.71-10.2L607.71-10.2 607.16-7.75Q607.06-7.25 607.06-7.05L607.06-7.05Q607.06-6.4 607.36-6.08 607.66-5.75 608.21-5.75L608.21-5.75Q609.26-5.75 609.73-5.45 610.21-5.15 610.06-4.35L610.06-4.35Q609.86-3.2 608.86-2.1 607.86-1 606.03-0.28 604.21 0.45 601.61 0.45L601.61 0.45Q598.31 0.45 596.36-1.03 594.41-2.5 594.41-5.25L594.41-5.25Q594.41-6.3 594.71-7.5L594.71-7.5 595.51-10.7Q595.71-11.35 595.71-12.05L595.71-12.05Q595.71-13.2 594.93-13.7 594.16-14.2 592.46-14.2L592.46-14.2 590.56-14.2 588.26-5.9Q588.16-5.6 588.16-5.15L588.16-5.15Q588.16-4.45 588.51-3.95 588.86-3.45 589.46-2.9L589.46-2.9Q589.91-2.55 590.16-2.23 590.41-1.9 590.41-1.55L590.41-1.55Q590.41-0.7 589.61-0.35 588.81 0 587.26 0L587.26 0 574.71 0Q573.41 0 572.76-0.48 572.11-0.95 572.31-1.8L572.31-1.8Q572.41-2.25 572.68-2.53 572.96-2.8 573.51-3.15L573.51-3.15Q574.36-3.65 574.86-4.2 575.36-4.75 575.66-5.9L575.66-5.9 581.76-27.45Q581.96-28.1 581.96-28.7L581.96-28.7Q581.96-29.25 581.78-29.63 581.61-30 581.31-30.5L581.31-30.5Q580.86-31.15 580.86-31.55L580.86-31.55Q580.86-31.7 580.96-32.1L580.96-32.1Q581.16-32.75 581.83-33.02 582.51-33.3 583.91-33.3L583.91-33.3 600.66-33.3Q604.11-33.3 606.68-32.25 609.26-31.2 610.63-29.38 612.01-27.55 612.01-25.25L612.01-25.25Q612.01-24.2 611.71-23.15L611.71-23.15ZM598.91-23.65Q599.16-24.8 599.16-25.4L599.16-25.4Q599.16-28.05 596.26-28.05L596.26-28.05 594.16-28.05 591.96-19.2 594.06-19.2Q596.01-19.2 597.13-20.15 598.26-21.1 598.91-23.65L598.91-23.65Z" opacity="1" transform="matrix(1,0,0,1,0,0)" fill="#ffffff" class="wordmark-text-0" data-fill-palette-color="primary" id="text-0"></path></svg></g></svg></g><g transform="matrix(1,0,0,1,0,27.469026730074315)"><svg viewBox="0 0 395.52 13.733668899959167" height="13.733668899959167" width="395.52"><g transform="matrix(1,0,0,1,0,0)"><svg width="395.52" viewBox="0.5 -37.5 1427.010009765625 49.54999923706055" height="13.733668899959167" data-palette-color="#ffffff"><path d="M28.85 0L10.45 0 10.45-0.8 14.9-2.9 14.9-15.4 4.1-30.1 0.5-32.2 0.5-33 18.15-33 18.15-32.2 14.3-30.25 14.3-30.05 22.85-18.55 30.5-29.95 30.5-30.15 26.5-32.2 26.5-33 38.4-33 38.4-32.2 34.95-30.55 24.4-15.4 24.4-2.9 28.85-0.8 28.85 0ZM67.43 0.5L67.43 0.5Q63.73 0.5 60.88-1.18 58.03-2.85 56.45-5.58 54.88-8.3 54.88-11.5L54.88-11.5Q54.88-14.7 56.45-17.45 58.03-20.2 60.88-21.85 63.73-23.5 67.43-23.5L67.43-23.5Q71.13-23.5 73.98-21.85 76.83-20.2 78.4-17.45 79.98-14.7 79.98-11.5L79.98-11.5Q79.98-8.3 78.4-5.58 76.83-2.85 73.98-1.18 71.13 0.5 67.43 0.5ZM67.88-2.15L67.88-2.15Q68.93-2.15 69.63-3.3 70.33-4.45 70.65-6.33 70.98-8.2 70.98-10.5L70.98-10.5Q70.98-13.3 70.58-15.65 70.18-18 69.3-19.45 68.43-20.9 67.08-20.9L67.08-20.9Q65.93-20.9 65.23-19.78 64.53-18.65 64.2-16.78 63.88-14.9 63.88-12.55L63.88-12.55Q63.88-9.8 64.3-7.43 64.73-5.05 65.6-3.6 66.48-2.15 67.88-2.15ZM106.6 0.5L106.6 0.5Q103.55 0.5 101.63-1.1 99.7-2.7 99.7-5.85L99.7-5.85 99.7-20.6 96.25-22.2 96.25-23 108.7-23 108.7-7.7Q108.7-6.25 109.45-5.48 110.2-4.7 111.35-4.7L111.35-4.7Q112-4.7 112.73-5 113.45-5.3 114.05-5.7L114.05-5.7 114.05-20.6 111.35-22.2 111.35-23 123.05-23 123.05-2.4 125.9-0.8 125.9 0 114.05 0 114.05-3.2 113.85-3.2Q112.2-1.55 110.6-0.53 109 0.5 106.6 0.5ZM158.93 0L142.13 0 142.13-0.8 145.58-2.4 145.58-17.3 142.28-19.45 142.28-20.25 153.28-23.5 154.08-23.5 154.53-18.85 154.78-18.85Q156.08-20.8 157.03-21.8 157.98-22.8 158.81-23.15 159.63-23.5 160.68-23.5L160.68-23.5Q161.13-23.5 161.63-23.4 162.13-23.3 162.58-23.15L162.58-23.15Q163.43-22.9 163.76-22.53 164.08-22.15 164.08-21.7L164.08-21.7Q164.08-21.35 163.93-20.9L163.93-20.9 162.58-17.1 162.23-17.1 161.33-17.4Q160.48-17.7 159.86-17.82 159.23-17.95 158.28-17.95L158.28-17.95Q157.18-17.95 156.23-17.43 155.28-16.9 154.58-16.1L154.58-16.1 154.58-2.4 158.93-0.8 158.93 0ZM219.29 0L206.74 0 206.74-0.8 211.19-2.9 212.24-30.15 207.79-32.2 207.79-33 222.19-33 231.34-11.85 240.24-33 254.29-33 254.29-32.2 249.84-30.8 250.69-2.9 254.69-0.8 254.69 0 237.19 0 237.19-0.8 241.39-2.85 240.94-25.9 229.89 0.25 226.69 0.25 215.39-26.05 214.74-2.85 219.29-0.8 219.29 0ZM284.71 0.5L284.71 0.5Q281.01 0.5 278.16-1.18 275.31-2.85 273.74-5.58 272.16-8.3 272.16-11.5L272.16-11.5Q272.16-14.7 273.74-17.45 275.31-20.2 278.16-21.85 281.01-23.5 284.71-23.5L284.71-23.5Q288.41-23.5 291.26-21.85 294.11-20.2 295.69-17.45 297.26-14.7 297.26-11.5L297.26-11.5Q297.26-8.3 295.69-5.58 294.11-2.85 291.26-1.18 288.41 0.5 284.71 0.5ZM285.16-2.15L285.16-2.15Q286.21-2.15 286.91-3.3 287.61-4.45 287.94-6.33 288.26-8.2 288.26-10.5L288.26-10.5Q288.26-13.3 287.86-15.65 287.46-18 286.59-19.45 285.71-20.9 284.36-20.9L284.36-20.9Q283.21-20.9 282.51-19.78 281.81-18.65 281.49-16.78 281.16-14.9 281.16-12.55L281.16-12.55Q281.16-9.8 281.59-7.43 282.01-5.05 282.89-3.6 283.76-2.15 285.16-2.15ZM328.54 0L314.24 0 314.24-0.8 317.69-2.4 317.69-17.8 314.39-19.45 314.39-20.25 325.39-23.5 326.19-23.5 326.64-19.8 326.89-19.8Q328.59-21.45 330.22-22.48 331.84-23.5 334.29-23.5L334.29-23.5Q337.39-23.5 339.37-21.9 341.34-20.3 341.34-17.15L341.34-17.15 341.34-2.4 344.79-0.8 344.79 0 330.49 0 330.49-0.8 332.34-2.4 332.34-15.3Q332.34-16.75 331.57-17.53 330.79-18.3 329.54-18.3L329.54-18.3Q328.84-18.3 328.07-18 327.29-17.7 326.69-17.3L326.69-17.3 326.69-2.4 328.54-0.8 328.54 0ZM373.07 0.5L373.07 0.5Q367.72 0.5 364.62-2.5 361.52-5.5 361.52-10.45L361.52-10.45Q361.52-14.3 363.29-17.23 365.07-20.15 368.12-21.83 371.17-23.5 374.97-23.5L374.97-23.5Q379.12-23.5 381.32-20.83 383.52-18.15 383.62-13.35L383.62-13.35 383.47-13.1 370.12-13.1Q370.12-12.75 370.12-12.35L370.12-12.35Q370.12-9.5 371.87-7.73 373.62-5.95 377.32-5.95L377.32-5.95Q378.77-5.95 380.34-6.2 381.92-6.45 383.52-7.25L383.52-7.25 383.67-7.25 383.67-6.2Q382.42-3.3 379.64-1.4 376.87 0.5 373.07 0.5ZM373.57-21.25L373.57-21.25Q372.22-21.25 371.37-19.7 370.52-18.15 370.27-15.3L370.27-15.3 376.92-15.3Q376.67-18.75 375.82-20 374.97-21.25 373.57-21.25ZM404.05 12.05L404.05 12.05Q402.9 12.05 402.62 11.73 402.35 11.4 402.35 10.6L402.35 10.6 402.35 6.55 402.65 6.25 404.85 6.25Q406.1 6.25 407.05 6.08 408 5.9 408.72 5.23 409.45 4.55 410.05 3L410.05 3 411.05 0.45 400.6-20.95 397.65-22.2 397.65-23 412.7-23 412.7-22.2 410.2-20.8 410.2-20.7 415-11.1 415.45-11.1 418.8-20.6 418.8-20.7 416.4-22.2 416.4-23 425.75-23 425.75-22.2 422.35-20.55 412.3 3.95Q411.8 5.1 411.5 5.88 411.2 6.65 410.8 7.38 410.4 8.1 409.65 9.15L409.65 9.15Q408.6 10.6 407 11.33 405.4 12.05 404.05 12.05ZM440.87 10.9L440.87 10.9 440.87 9.05Q443.52 7.8 444.42 6.25 445.32 4.7 445.32 3.5L445.32 3.5Q445.32 2 444.52 0.98 443.72-0.05 442.67-0.7L442.67-0.7 440.97-1.7 440.77-2.4 443.27-6.35Q443.67-6.95 443.9-7.2 444.12-7.45 444.52-7.45L444.52-7.45Q444.97-7.45 445.77-7L445.77-7Q447.77-5.9 448.9-3.98 450.02-2.05 450.02 0.1L450.02 0.1Q450.02 2.05 449.17 4.08 448.32 6.1 446.3 7.88 444.27 9.65 440.87 10.9ZM523.08 0L504.68 0 504.68-0.8 509.13-2.9 509.13-15.4 498.33-30.1 494.73-32.2 494.73-33 512.38-33 512.38-32.2 508.53-30.25 508.53-30.05 517.08-18.55 524.73-29.95 524.73-30.15 520.73-32.2 520.73-33 532.63-33 532.63-32.2 529.18-30.55 518.63-15.4 518.63-2.9 523.08-0.8 523.08 0ZM561.65 0.5L561.65 0.5Q557.95 0.5 555.1-1.18 552.25-2.85 550.68-5.58 549.1-8.3 549.1-11.5L549.1-11.5Q549.1-14.7 550.68-17.45 552.25-20.2 555.1-21.85 557.95-23.5 561.65-23.5L561.65-23.5Q565.35-23.5 568.2-21.85 571.05-20.2 572.63-17.45 574.2-14.7 574.2-11.5L574.2-11.5Q574.2-8.3 572.63-5.58 571.05-2.85 568.2-1.18 565.35 0.5 561.65 0.5ZM562.1-2.15L562.1-2.15Q563.15-2.15 563.85-3.3 564.55-4.45 564.88-6.33 565.2-8.2 565.2-10.5L565.2-10.5Q565.2-13.3 564.8-15.65 564.4-18 563.53-19.45 562.65-20.9 561.3-20.9L561.3-20.9Q560.15-20.9 559.45-19.78 558.75-18.65 558.43-16.78 558.1-14.9 558.1-12.55L558.1-12.55Q558.1-9.8 558.53-7.43 558.95-5.05 559.83-3.6 560.7-2.15 562.1-2.15ZM600.83 0.5L600.83 0.5Q597.78 0.5 595.86-1.1 593.93-2.7 593.93-5.85L593.93-5.85 593.93-20.6 590.48-22.2 590.48-23 602.93-23 602.93-7.7Q602.93-6.25 603.68-5.48 604.43-4.7 605.58-4.7L605.58-4.7Q606.23-4.7 606.96-5 607.68-5.3 608.28-5.7L608.28-5.7 608.28-20.6 605.58-22.2 605.58-23 617.28-23 617.28-2.4 620.13-0.8 620.13 0 608.28 0 608.28-3.2 608.08-3.2Q606.43-1.55 604.83-0.53 603.23 0.5 600.83 0.5ZM653.16 0L636.36 0 636.36-0.8 639.81-2.4 639.81-17.3 636.51-19.45 636.51-20.25 647.51-23.5 648.31-23.5 648.76-18.85 649.01-18.85Q650.31-20.8 651.26-21.8 652.21-22.8 653.03-23.15 653.86-23.5 654.91-23.5L654.91-23.5Q655.36-23.5 655.86-23.4 656.36-23.3 656.81-23.15L656.81-23.15Q657.66-22.9 657.98-22.53 658.31-22.15 658.31-21.7L658.31-21.7Q658.31-21.35 658.16-20.9L658.16-20.9 656.81-17.1 656.46-17.1 655.56-17.4Q654.71-17.7 654.08-17.82 653.46-17.95 652.51-17.95L652.51-17.95Q651.41-17.95 650.46-17.43 649.51-16.9 648.81-16.1L648.81-16.1 648.81-2.4 653.16-0.8 653.16 0ZM718.66 0L700.96 0 700.96-0.8 705.41-2.9 705.41-30.1 700.96-32.2 700.96-33 720.81-33Q726.06-33 729.09-30.83 732.11-28.65 732.11-24.85L732.11-24.85Q732.11-22.1 730.31-20.28 728.51-18.45 725.51-17.3L725.51-17.3 734.66-2.95 738.46-0.8 738.46 0 725.26 0 716.31-15.4 714.91-15.4 714.91-2.95 718.66-0.8 718.66 0ZM716.11-30.25L716.11-30.25 714.91-30.25 714.91-17.65 716.41-17.65Q719.41-17.65 721.09-19.38 722.76-21.1 722.76-23.95L722.76-23.95Q722.76-27 721.11-28.63 719.46-30.25 716.11-30.25ZM763.34 0.5L763.34 0.5Q760.29 0.5 758.37-1.1 756.44-2.7 756.44-5.85L756.44-5.85 756.44-20.6 752.99-22.2 752.99-23 765.44-23 765.44-7.7Q765.44-6.25 766.19-5.48 766.94-4.7 768.09-4.7L768.09-4.7Q768.74-4.7 769.47-5 770.19-5.3 770.79-5.7L770.79-5.7 770.79-20.6 768.09-22.2 768.09-23 779.79-23 779.79-2.4 782.64-0.8 782.64 0 770.79 0 770.79-3.2 770.59-3.2Q768.94-1.55 767.34-0.53 765.74 0.5 763.34 0.5ZM814.17 0L798.87 0 798.87-0.8 802.32-2.4 802.32-31.8 799.02-33.95 799.02-34.75 810.52-37.5 811.32-37.5 811.32-2.4 814.17-0.8 814.17 0ZM842.95 0.5L842.95 0.5Q837.6 0.5 834.5-2.5 831.4-5.5 831.4-10.45L831.4-10.45Q831.4-14.3 833.17-17.23 834.95-20.15 838-21.83 841.05-23.5 844.85-23.5L844.85-23.5Q849-23.5 851.2-20.83 853.4-18.15 853.5-13.35L853.5-13.35 853.35-13.1 840-13.1Q840-12.75 840-12.35L840-12.35Q840-9.5 841.75-7.73 843.5-5.95 847.2-5.95L847.2-5.95Q848.65-5.95 850.22-6.2 851.8-6.45 853.4-7.25L853.4-7.25 853.55-7.25 853.55-6.2Q852.3-3.3 849.52-1.4 846.75 0.5 842.95 0.5ZM843.45-21.25L843.45-21.25Q842.1-21.25 841.25-19.7 840.4-18.15 840.15-15.3L840.15-15.3 846.8-15.3Q846.55-18.75 845.7-20 844.85-21.25 843.45-21.25ZM880.12 0.5L880.12 0.5Q877.57 0.5 875.67-0.03 873.77-0.55 872.02-1.4L872.02-1.4 872.02-7.3 872.82-7.3 874.67-4.75Q876.62-2 879.87-2L879.87-2Q883.52-2 883.52-4.35L883.52-4.35Q883.52-5.15 883.1-5.7 882.67-6.25 881.45-6.88 880.22-7.5 877.82-8.4L877.82-8.4Q874.82-9.55 873.52-11.2 872.22-12.85 872.22-15L872.22-15Q872.22-17.4 873.4-19.33 874.57-21.25 876.72-22.38 878.87-23.5 881.77-23.5L881.77-23.5Q883.37-23.5 885.05-23.2 886.72-22.9 888.27-22.1L888.27-22.1 888.27-15.85 887.47-15.85 885.97-18Q884.87-19.55 883.92-20.3 882.97-21.05 881.37-21.05L881.37-21.05Q879.97-21.05 879.15-20.38 878.32-19.7 878.32-18.45L878.32-18.45Q878.32-17.7 878.67-17.15 879.02-16.6 880.15-16 881.27-15.4 883.57-14.55L883.57-14.55Q884.97-14.05 886.35-13.33 887.72-12.6 888.65-11.25 889.57-9.9 889.57-7.55L889.57-7.55Q889.57-5.1 888.27-3.3 886.97-1.5 884.82-0.5 882.67 0.5 880.12 0.5ZM909.15 10.9L909.15 10.9 909.15 9.05Q911.8 7.8 912.7 6.25 913.6 4.7 913.6 3.5L913.6 3.5Q913.6 2 912.8 0.98 912-0.05 910.95-0.7L910.95-0.7 909.25-1.7 909.05-2.4 911.55-6.35Q911.95-6.95 912.18-7.2 912.4-7.45 912.8-7.45L912.8-7.45Q913.25-7.45 914.05-7L914.05-7Q916.05-5.9 917.18-3.98 918.3-2.05 918.3 0.1L918.3 0.1Q918.3 2.05 917.45 4.08 916.6 6.1 914.58 7.88 912.55 9.65 909.15 10.9ZM981.9 0.5L981.9 0.5Q978.1 0.5 974.9-0.78 971.7-2.05 969.3-4.33 966.9-6.6 965.58-9.7 964.25-12.8 964.25-16.5L964.25-16.5Q964.25-20.2 965.58-23.3 966.9-26.4 969.3-28.68 971.7-30.95 974.9-32.23 978.1-33.5 981.9-33.5L981.9-33.5Q985.7-33.5 988.93-32.23 992.15-30.95 994.55-28.68 996.95-26.4 998.28-23.3 999.6-20.2 999.6-16.5L999.6-16.5Q999.6-12.8 998.28-9.7 996.95-6.6 994.55-4.33 992.15-2.05 988.93-0.78 985.7 0.5 981.9 0.5ZM982.55-2.15L982.55-2.15Q984.65-2.15 986.23-3.75 987.8-5.35 988.7-8.22 989.6-11.1 989.6-15.05L989.6-15.05Q989.6-19.85 988.5-23.4 987.4-26.95 985.55-28.93 983.7-30.9 981.35-30.9L981.35-30.9Q979.3-30.9 977.7-29.33 976.1-27.75 975.18-24.88 974.25-22 974.25-18.05L974.25-18.05Q974.25-13.25 975.38-9.68 976.5-6.1 978.38-4.13 980.25-2.15 982.55-2.15ZM1026.73 0.5L1026.73 0.5Q1023.68 0.5 1021.76-1.1 1019.83-2.7 1019.83-5.85L1019.83-5.85 1019.83-20.6 1016.38-22.2 1016.38-23 1028.83-23 1028.83-7.7Q1028.83-6.25 1029.58-5.48 1030.33-4.7 1031.48-4.7L1031.48-4.7Q1032.13-4.7 1032.86-5 1033.58-5.3 1034.18-5.7L1034.18-5.7 1034.18-20.6 1031.48-22.2 1031.48-23 1043.18-23 1043.18-2.4 1046.03-0.8 1046.03 0 1034.18 0 1034.18-3.2 1033.98-3.2Q1032.33-1.55 1030.73-0.53 1029.13 0.5 1026.73 0.5ZM1079.06 0L1062.26 0 1062.26-0.8 1065.71-2.4 1065.71-17.3 1062.41-19.45 1062.41-20.25 1073.41-23.5 1074.21-23.5 1074.66-18.85 1074.91-18.85Q1076.21-20.8 1077.16-21.8 1078.11-22.8 1078.93-23.15 1079.76-23.5 1080.81-23.5L1080.81-23.5Q1081.26-23.5 1081.76-23.4 1082.26-23.3 1082.71-23.15L1082.71-23.15Q1083.56-22.9 1083.88-22.53 1084.21-22.15 1084.21-21.7L1084.21-21.7Q1084.21-21.35 1084.06-20.9L1084.06-20.9 1082.71-17.1 1082.36-17.1 1081.46-17.4Q1080.61-17.7 1079.98-17.82 1079.36-17.95 1078.41-17.95L1078.41-17.95Q1077.31-17.95 1076.36-17.43 1075.41-16.9 1074.71-16.1L1074.71-16.1 1074.71-2.4 1079.06-0.8 1079.06 0ZM1153.56 0L1133.06 0 1133.06-0.8 1138.56-2.9 1138.56-30.25 1132.06-30.25 1127.66-21.45 1126.86-21.45 1126.86-33 1159.76-33 1159.76-21.45 1158.96-21.45 1154.56-30.25 1148.06-30.25 1148.06-2.9 1153.56-0.8 1153.56 0ZM1193.79 0L1176.99 0 1176.99-0.8 1180.44-2.4 1180.44-17.3 1177.14-19.45 1177.14-20.25 1188.14-23.5 1188.94-23.5 1189.39-18.85 1189.64-18.85Q1190.94-20.8 1191.89-21.8 1192.84-22.8 1193.67-23.15 1194.49-23.5 1195.54-23.5L1195.54-23.5Q1195.99-23.5 1196.49-23.4 1196.99-23.3 1197.44-23.15L1197.44-23.15Q1198.29-22.9 1198.62-22.53 1198.94-22.15 1198.94-21.7L1198.94-21.7Q1198.94-21.35 1198.79-20.9L1198.79-20.9 1197.44-17.1 1197.09-17.1 1196.19-17.4Q1195.34-17.7 1194.72-17.82 1194.09-17.95 1193.14-17.95L1193.14-17.95Q1192.04-17.95 1191.09-17.43 1190.14-16.9 1189.44-16.1L1189.44-16.1 1189.44-2.4 1193.79-0.8 1193.79 0ZM1220.27 0.45L1220.27 0.45Q1218.62 0.45 1217.19-0.25 1215.77-0.95 1214.92-2.33 1214.07-3.7 1214.12-5.65L1214.12-5.65Q1214.17-7.6 1214.79-8.83 1215.42-10.05 1217.17-10.93 1218.92-11.8 1222.27-12.7L1222.27-12.7 1226.97-13.95 1226.97-16.65Q1226.97-18.7 1225.97-19.8 1224.97-20.9 1223.12-20.9L1223.12-20.9Q1220.37-20.9 1220.37-18.75L1220.37-18.75 1220.37-15.85 1220.22-15.65 1216.42-15.65Q1215.07-15.65 1215.07-17.3L1215.07-17.3Q1215.07-18.4 1216.07-19.4 1217.07-20.4 1218.62-21.35L1218.62-21.35Q1220.67-22.6 1222.27-23.05 1223.87-23.5 1225.77-23.5L1225.77-23.5Q1228.67-23.5 1230.97-22.73 1233.27-21.95 1234.62-20.4 1235.97-18.85 1235.97-16.5L1235.97-16.5 1235.97-3.9Q1236.37-3.55 1236.89-3.35 1237.42-3.15 1238.12-3.15L1238.12-3.15 1239.22-3.15 1239.42-2.95 1239.42-1.9Q1238.87-1.1 1237.47-0.3 1236.07 0.5 1233.72 0.5L1233.72 0.5Q1231.17 0.5 1229.59-0.43 1228.02-1.35 1227.17-3.2L1227.17-3.2 1226.97-3.2Q1225.72-1.65 1224.09-0.6 1222.47 0.45 1220.27 0.45ZM1222.47-7.35L1222.47-7.35Q1222.47-5.8 1223.29-5 1224.12-4.2 1225.52-4.2L1225.52-4.2Q1226.22-4.2 1226.97-4.45L1226.97-4.45 1226.97-11.65Q1224.57-11.1 1223.52-10.15 1222.47-9.2 1222.47-7.35ZM1266.7 0.5L1266.7 0.5Q1263.45 0.5 1260.97-0.85 1258.5-2.2 1257.07-4.67 1255.65-7.15 1255.65-10.45L1255.65-10.45Q1255.65-14.3 1257.25-17.23 1258.85-20.15 1261.82-21.83 1264.8-23.5 1268.9-23.5L1268.9-23.5Q1271.4-23.5 1273.3-22.85 1275.2-22.2 1276.2-21.05L1276.2-21.05Q1276.95-20.15 1276.95-19.55L1276.95-19.55Q1276.95-19.2 1276.85-18.95 1276.75-18.7 1276.35-18.35L1276.35-18.35 1273.7-16.1 1273.35-16.1 1271.6-18.6Q1270.65-19.9 1269.97-20.6 1269.3-21.3 1268.1-21.3L1268.1-21.3Q1266.05-21.3 1265.15-18.93 1264.25-16.55 1264.25-12.85L1264.25-12.85Q1264.25-9.8 1265.82-7.88 1267.4-5.95 1270.7-5.95L1270.7-5.95Q1272.15-5.95 1273.75-6.2 1275.35-6.45 1276.9-7.25L1276.9-7.25 1277.05-7.25 1277.05-6.2Q1275.8-3.3 1273.1-1.4 1270.4 0.5 1266.7 0.5ZM1309.72 0L1294.27 0 1294.27-0.8 1297.72-2.4 1297.72-31.8 1294.42-33.95 1294.42-34.75 1305.92-37.5 1306.72-37.5 1306.72-13.3 1313.87-20.1 1313.87-20.4 1311.42-22.2 1311.42-23 1322.67-23 1322.67-22.2 1319.47-20.45 1313.62-15.7 1322.17-2.5 1325.37-0.8 1325.37 0 1313.57 0 1312.27-2.6 1306.72-11.75 1306.72-2.4 1309.72-0.8 1309.72 0ZM1352.65 0.5L1352.65 0.5Q1347.3 0.5 1344.2-2.5 1341.1-5.5 1341.1-10.45L1341.1-10.45Q1341.1-14.3 1342.88-17.23 1344.65-20.15 1347.7-21.83 1350.75-23.5 1354.55-23.5L1354.55-23.5Q1358.7-23.5 1360.9-20.83 1363.1-18.15 1363.2-13.35L1363.2-13.35 1363.05-13.1 1349.7-13.1Q1349.7-12.75 1349.7-12.35L1349.7-12.35Q1349.7-9.5 1351.45-7.73 1353.2-5.95 1356.9-5.95L1356.9-5.95Q1358.35-5.95 1359.93-6.2 1361.5-6.45 1363.1-7.25L1363.1-7.25 1363.25-7.25 1363.25-6.2Q1362-3.3 1359.23-1.4 1356.45 0.5 1352.65 0.5ZM1353.15-21.25L1353.15-21.25Q1351.8-21.25 1350.95-19.7 1350.1-18.15 1349.85-15.3L1349.85-15.3 1356.5-15.3Q1356.25-18.75 1355.4-20 1354.55-21.25 1353.15-21.25ZM1397.28 0L1380.48 0 1380.48-0.8 1383.93-2.4 1383.93-17.3 1380.63-19.45 1380.63-20.25 1391.63-23.5 1392.43-23.5 1392.88-18.85 1393.13-18.85Q1394.43-20.8 1395.38-21.8 1396.33-22.8 1397.15-23.15 1397.98-23.5 1399.03-23.5L1399.03-23.5Q1399.48-23.5 1399.98-23.4 1400.48-23.3 1400.93-23.15L1400.93-23.15Q1401.78-22.9 1402.1-22.53 1402.43-22.15 1402.43-21.7L1402.43-21.7Q1402.43-21.35 1402.28-20.9L1402.28-20.9 1400.93-17.1 1400.58-17.1 1399.68-17.4Q1398.83-17.7 1398.2-17.82 1397.58-17.95 1396.63-17.95L1396.63-17.95Q1395.53-17.95 1394.58-17.43 1393.63-16.9 1392.93-16.1L1392.93-16.1 1392.93-2.4 1397.28-0.8 1397.28 0ZM1423.36 0.25L1423.36 0.25Q1421.66 0.25 1420.43-0.98 1419.21-2.2 1419.21-3.9L1419.21-3.9Q1419.21-5.6 1420.43-6.83 1421.66-8.05 1423.36-8.05L1423.36-8.05Q1425.06-8.05 1426.28-6.83 1427.51-5.6 1427.51-3.9L1427.51-3.9Q1427.51-2.2 1426.28-0.98 1425.06 0.25 1423.36 0.25Z" opacity="1" transform="matrix(1,0,0,1,0,0)" fill="#ffffff" class="slogan-text-1" data-fill-palette-color="secondary" id="text-1"></path></svg></g></svg></g></svg></g></svg></g><g transform="matrix(1,0,0,1,161.28893731964683,0)"><svg viewBox="0 0 72.94212536070629 56.94212536070628" height="56.94212536070628" width="72.94212536070629"><g><svg xmlns="http://www.w3.org/2000/svg" viewBox="2 2 60 60" x="8.000000000000004" y="0" height="56.94212536070628" width="56.94212536070628" class="icon-icon-0" data-fill-palette-color="accent" id="icon-0"><g fill="#bf2051" data-fill-palette-color="accent"><path d="M61 6H58V3a1 1 0 0 0-1-1H40.123A6.26 6.26 0 0 0 35 4.668 6.26 6.26 0 0 0 29.877 2H13a1 1 0 0 0-1 1V6H9A1 1 0 0 0 8 7V24h2V8h2V24h2V4H29.877A4.275 4.275 0 0 1 34 7.13V22h2V7.13A4.275 4.275 0 0 1 40.123 4H48v7a1 1 0 0 0 1 1h7V41H46v2H57a1 1 0 0 0 1-1V8h2l-0.162 36.923L46 45l0.01 2 14.834-0.083a1 1 0 0 0 0.994-1L62 10.628V7A1 1 0 0 0 61 6ZM56 8.586L51.414 4H56ZM50 10V5.414L54.586 10Z" fill="#ffffff" data-fill-palette-color="accent"></path><rect x="16" y="10" width="16" height="2" fill="#ffffff" data-fill-palette-color="accent"></rect><rect x="28" y="16" width="4" height="2" fill="#ffffff" data-fill-palette-color="accent"></rect><rect x="16" y="16" width="10" height="2" fill="#ffffff" data-fill-palette-color="accent"></rect><rect x="50" y="16" width="4" height="2" fill="#ffffff" data-fill-palette-color="accent"></rect><rect x="38" y="16" width="10" height="2" fill="#ffffff" data-fill-palette-color="accent"></rect><rect x="50" y="22" width="4" height="2" fill="#ffffff" data-fill-palette-color="accent"></rect><rect x="38" y="22" width="10" height="2" fill="#ffffff" data-fill-palette-color="accent"></rect><rect x="50" y="28" width="4" height="2" fill="#ffffff" data-fill-palette-color="accent"></rect><rect x="42" y="28" width="6" height="2" fill="#ffffff" data-fill-palette-color="accent"></rect><rect x="50" y="34" width="4" height="2" fill="#ffffff" data-fill-palette-color="accent"></rect><rect x="42" y="34" width="6" height="2" fill="#ffffff" data-fill-palette-color="accent"></rect><rect x="38" y="10" width="8" height="2" fill="#ffffff" data-fill-palette-color="accent"></rect><path d="M7 62H39a1 1 0 0 0 1-1V53h3a1 1 0 0 0 1-1V42a1 1 0 0 0-1-1H40V27a1 1 0 0 0-1-1H34.249l-0.273-1.219a1 1 0 0 0-1.263-0.739l-4.038 1.211-2.814-4.762a1 1 0 0 0-1.37-0.352L14.572 26H7a5.006 5.006 0 0 0-5 5V57A5.006 5.006 0 0 0 7 62ZM42 51H35a4 4 0 0 1 0-8h7ZM35 41a6 6 0 0 0 0 12h3v7H7a3 3 0 0 1-3-3V35c0.039 0.03 0.084 0.051 0.124 0.079 0.081 0.057 0.167 0.107 0.251 0.16a5.261 5.261 0 0 0 0.528 0.287c0.1 0.044 0.193 0.087 0.293 0.126a4.982 4.982 0 0 0 0.6 0.186c0.094 0.023 0.184 0.052 0.28 0.07A4.964 4.964 0 0 0 7 36H38v5Zm3-13v6H36.044L34.7 28Zm-4.005 6H7a2.946 2.946 0 0 1-0.389-0.039l25.648-7.694ZM24.648 22.37L26.7 25.845 10.584 30.681ZM7 28h4.187L4.221 32.117A2.97 2.97 0 0 1 4 31 3 3 0 0 1 7 28Z" fill="#ffffff" data-fill-palette-color="accent"></path><circle cx="35" cy="47" r="2.0" fill="#ffffff" data-fill-palette-color="accent"></circle><path d="M50 62a5.02 5.02 0 0 0 4.59-3.041c0.138 0.011 0.27 0.041 0.41 0.041a5 5 0 1 0-4.593-6.969C50.271 52.018 50.134 52 50 52a5 5 0 0 0 0 10Zm5-11a3 3 0 1 1-0.8 5.88 0.2 0.2 0 0 0-0.02-0.011A3.011 3.011 0 0 1 52.611 55.8v0a2.856 2.856 0 0 1-0.213-0.33c-0.025-0.045-0.051-0.09-0.074-0.137a2.823 2.823 0 0 1-0.128-0.293c-0.031-0.083-0.057-0.169-0.08-0.256s-0.045-0.155-0.06-0.236A2.927 2.927 0 0 1 52 54a3.007 3.007 0 0 1 3-3Zm-5 3a4.81 4.81 0 0 0 0.089 0.876c0.016 0.094 0.037 0.186 0.059 0.278a4.844 4.844 0 0 0 0.181 0.582c0.052 0.141 0.11 0.277 0.175 0.411a4.932 4.932 0 0 0 0.263 0.485c0.082 0.13 0.171 0.253 0.264 0.375 0.066 0.086 0.136 0.168 0.207 0.25a4.994 4.994 0 0 0 1.319 1.078c0.033 0.019 0.063 0.043 0.1 0.061A3 3 0 1 1 50 54Z" fill="#ffffff" data-fill-palette-color="accent"></path></g></svg></g></svg></g><g><rect width="161.28893731964683" height="2.0040719005576415" y="53.93805346014864" x="234.23106268035312" fill="#ffffff" data-fill-palette-color="accent"></rect><rect width="161.28893731964683" height="2.0040719005576415" y="53.93805346014864" x="0" fill="#ffffff" data-fill-palette-color="accent"></rect><rect width="161.28893731964683" height="2.0040719005576415" y="49.929909659033356" x="234.23106268035312" fill="#ffffff" data-fill-palette-color="accent"></rect><rect width="161.28893731964683" height="2.0040719005576415" y="49.929909659033356" x="0" fill="#ffffff" data-fill-palette-color="accent"></rect></g></svg></g><defs></defs></svg><rect width="395.52" height="103.39108251052417" fill="none" stroke="none" visibility="hidden"></rect></g></svg></g></svg>